<?xml version="1.0" encoding="utf-8"?>
<!-- Generator: Adobe Illustrator 25.0.0, SVG Export Plug-In . SVG Version: 6.00 Build 0)  -->
<svg version="1.1" id="Layer_1" xmlns="http://www.w3.org/2000/svg" xmlns:xlink="http://www.w3.org/1999/xlink" x="0px" y="0px"
	 viewBox="0 0 329.7 171.1" style="enable-background:new 0 0 329.7 171.1;" xml:space="preserve">
<style type="text/css">
	.st0{fill:#858585;}
	.st1{fill:#FFFFFF;}
</style>
<g id="_x33_CimC9_1_">
	<g>
		<g>
			<path class="st0" d="M206.8,95.5v0.3c0,0,0.1-0.1,0.1-0.1C206.8,95.6,206.8,95.5,206.8,95.5z M221.9,82.4v0.1
				C221.9,82.5,221.9,82.5,221.9,82.4c0.1,0,0.1,0,0.1,0H221.9z M218.1,84.3v0.1C218.1,84.4,218.1,84.4,218.1,84.3
				c0.1,0,0.1,0,0.2,0H218.1z M250.1,38.9v0.2c0,0,0.1,0,0.1,0C250.2,39,250.2,38.9,250.1,38.9z M250.1,37.2v0.1
				C250.2,37.3,250.2,37.2,250.1,37.2L250.1,37.2L250.1,37.2z M253.9,37.1L253.9,37.1C253.9,37.2,253.9,37.2,253.9,37.1
				C254,37.2,254,37.2,253.9,37.1c0.1,0,0.1,0,0.1,0H253.9z M261.4,31.3v0.2c0,0,0,0,0.1-0.1C261.5,31.5,261.5,31.4,261.4,31.3z
				 M267.1,25.7v0.3c0,0,0,0,0.1-0.1v0C267.2,25.8,267.1,25.7,267.1,25.7z M297.3,63.6L297.3,63.6c0-0.1,0-0.1-0.1-0.2L297.3,63.6
				C297.3,63.6,297.3,63.6,297.3,63.6C297.3,63.6,297.3,63.6,297.3,63.6C297.4,63.6,297.3,63.6,297.3,63.6z M253.9,37.2
				C253.9,37.2,253.9,37.2,253.9,37.2C254,37.2,254,37.2,253.9,37.2C254,37.2,254,37.2,253.9,37.2z"/>
			<path class="st0" d="M253.9,37L253.9,37l0.1,0.1l3-2.3C256,35.6,255,36.4,253.9,37z M253.9,37L253.9,37l0.1,0.1l3-2.3
				C256,35.6,255,36.4,253.9,37z"/>
			<path class="st0" d="M297.4,63.6C297.3,63.6,297.3,63.6,297.4,63.6C297.3,63.6,297.3,63.6,297.4,63.6l-0.1-0.2
				C297.3,63.4,297.3,63.5,297.4,63.6L297.4,63.6C297.3,63.6,297.4,63.6,297.4,63.6z"/>
			<path class="st0" d="M304.9,56C304.9,56,304.9,56,304.9,56C304.9,56.1,304.8,56.1,304.9,56L304.9,56L304.9,56z"/>
			<polygon class="st0" points="224.1,102.3 223.5,102.5 223.6,102 			"/>
			<path class="st0" d="M218.3,84.3C218.2,84.3,218.2,84.3,218.3,84.3c-0.1,0.1-0.1,0.1-0.2,0.1v-0.1H218.3z"/>
			<path class="st0" d="M304.9,56C304.9,56,304.9,56,304.9,56C304.9,56.1,304.8,56.1,304.9,56L304.9,56L304.9,56z"/>
			<path class="st0" d="M306.8,54.1C306.8,54.1,306.8,54.2,306.8,54.1C306.8,54.2,306.8,54.1,306.8,54.1
				C306.8,54.1,306.8,54.1,306.8,54.1z"/>
			<path class="st0" d="M222,82.4C222,82.4,221.9,82.5,222,82.4c-0.1,0.1-0.1,0.1-0.1,0.1v-0.1H222z"/>
			<polygon class="st0" points="301.5,83.9 301.1,84.4 301,84.3 			"/>
			<path class="st0" d="M206.9,95.7C206.8,95.7,206.8,95.7,206.9,95.7l-0.1-0.2C206.8,95.5,206.8,95.6,206.9,95.7z"/>
			<path class="st0" d="M221.9,73.1c-0.6,0.6-1.2,1.2-1.8,1.8C220.7,74.3,221.3,73.7,221.9,73.1z"/>
			<path class="st0" d="M220,75c-0.6,0.6-1.2,1.2-1.8,1.8C218.8,76.2,219.4,75.6,220,75z"/>
			<path class="st0" d="M250.2,37.2L250.2,37.2c0,0.1,0,0.1-0.1,0.1L250.2,37.2L250.2,37.2z"/>
			<path class="st0" d="M254,37.1C254,37.1,254,37.1,254,37.1c0,0-0.1,0-0.1,0.1c-1.3,0.7-2.5,1.3-3.8,1.9v-0.3
				c1.2-0.3,2.4-0.9,3.6-1.7H254z"/>
			<path class="st0" d="M261.5,31.5C261.5,31.6,261.5,31.6,261.5,31.5C261.4,31.6,261.4,31.6,261.5,31.5l-0.1-0.2
				C261.5,31.4,261.5,31.5,261.5,31.5z"/>
			<path class="st0" d="M267.2,25.9L267.2,25.9C267.2,25.9,267.1,25.9,267.2,25.9l-0.1-0.2C267.1,25.7,267.2,25.8,267.2,25.9z"/>
			<path class="st0" d="M269.1,23.9L269.1,23.9C269,24,269.1,24,269.1,23.9L269.1,23.9z"/>
			<path class="st0" d="M172.9,54.2L172.9,54.2z"/>
			<path class="st0" d="M184.2,43l-0.6,0.5L184.2,43C184.2,42.9,184.2,42.9,184.2,43z"/>
			<path class="st0" d="M186.1,41.3C186.1,41.3,186.1,41.3,186.1,41.3l-1.8,1.5l-0.1,0c0.6-0.6,1.2-1.2,1.8-1.8
				C186.1,41.1,186.1,41.2,186.1,41.3z"/>
		</g>
	</g>
</g>
<path class="st0" d="M218.3,84.3C218.2,84.3,218.2,84.3,218.3,84.3c-0.1,0.1-0.1,0.1-0.2,0.1v-0.1H218.3z"/>
<path class="st0" d="M222,82.4C222,82.4,221.9,82.5,222,82.4c-0.1,0.1-0.1,0.1-0.1,0.1v-0.1H222z"/>
<path class="st0" d="M177.2,54.1c0.5-0.6,1-1.3,1.4-2c0-0.1,0-0.2,0-0.4c0,0.1,0.1,0.2,0.2,0.2c0.4-0.2,0.8-0.5,1.3-0.7L177.2,54.1z
	"/>
<path class="st0" d="M250.2,37.2L250.2,37.2c0,0.1,0,0.1-0.1,0.1L250.2,37.2L250.2,37.2z"/>
<path class="st1" d="M323,54.7c-1.1-5.9-3.1-11.7-4.7-17.4c-4.2,6.2-7.8,11.5-11.4,16.8c0,0,0,0,0,0c0,0-0.1,0-0.1,0.1
	c-0.6,0.6-1.2,1.2-1.9,1.9c0,0,0,0-0.1,0.1c-5.4,5-7.1,7-7.5,7.4v0c0,0,0,0,0,0c0,0,0,0-0.1,0c0,0,0,0,0,0
	c-1.9,1.3-12.5,7.5-15.1,9.4l0,0c-8.5,1.9-16.8,4.4-25.4,5.3c-8,0.8-16.1,0.3-24.6,0.2l-5.1-1.8l-22.8,17.3l4.1,3.5L210,99
	c12.7,5.3,25.5,10.6,38.3,15.7c1.6,0.6,3.7,0.4,5.4,0.1c11-2.4,21.9-5.2,33-7.5c4.5-0.9,7.5-3,9.3-7c6.3-14.1,15.1-26.6,24.7-38.7
	C322.2,59.7,323.4,56.8,323,54.7z M206.8,95.7v-0.3C206.8,95.5,206.8,95.6,206.8,95.7C206.8,95.7,206.8,95.7,206.8,95.7z
	 M218.2,84.4C218.1,84.4,218.1,84.4,218.2,84.4L218.2,84.4L218.2,84.4C218.2,84.3,218.2,84.3,218.2,84.4z M221.9,82.5
	C221.9,82.5,221.9,82.5,221.9,82.5L221.9,82.5L221.9,82.5C222,82.4,221.9,82.5,221.9,82.5z M223.5,102.5l0.1-0.5l0.5,0.3
	L223.5,102.5z M301.1,84.4L301.1,84.4l0.4-0.5L301.1,84.4z"/>
<path class="st1" d="M206.9,95.7C206.8,95.7,206.8,95.7,206.9,95.7l-0.1-0.2C206.8,95.5,206.8,95.6,206.9,95.7z"/>
<path class="st1" d="M218.3,84.3C218.2,84.3,218.2,84.3,218.3,84.3c-0.1,0.1-0.1,0.1-0.2,0.1v-0.1H218.3z"/>
<path class="st1" d="M222,82.4C222,82.4,221.9,82.5,222,82.4c-0.1,0.1-0.1,0.1-0.1,0.1v-0.1H222z"/>
<path class="st0" d="M329.7,116.9c-0.4-18.8-0.9-37.7-2.2-56.4c-0.5-7.1-2.9-14.1-5.3-20.9c-3.1-8.5-7.8-11-16.9-9.9
	c-5.3,0.6-10.5,1.7-15.9,2.7c-2.1-7.2-3.6-14.2-6.1-20.9C280.5,4.1,275.9,1,269,1.6c-5.6,0.5-11.2,1.4-16.7,2.6
	c-17.5,3.8-35,7.5-52.2,12.1c-7.9,2.1-12.5,0.8-16.9-6.4C175.6-2.4,168.1-3.4,157,7.8c-17.1,17.3-36.2,32-60.3,38.8
	C88.6,48.9,81,53,73,55.8c-14.2,4.9-28.5,9.5-42.9,14.1c-4.2,1.3-8.7,1.6-12.8,2.9C9.4,75.3,2.9,80,1.2,88.4
	c-3.7,18.1,0.9,26,17.8,33c0.9,0.4,1.8,0.7,2.6,1c11.1,4.1,11.4,4.1,11.3,15.5c0,6.7,2.3,11.8,8.2,14.6c8.7,4.1,17.5,8.8,26.7,11.2
	c26,6.8,52.9,5.5,79.5,7.1c22.5,1.4,44.1-4.1,65.7-10.1c22-6.2,44.3-11.5,66.5-17c12.2-3,24.5-5.2,36.6-8.5
	C327.3,132.1,330,128.3,329.7,116.9z M322.1,105.2c-9,2.8-17.9,5.9-26.9,8.2c-23,6-45.9,12.8-69.3,17.3c-28.2,5.4-56.8,9-85.3,12.8
	c-4.1,0.5-8.4-1.9-12.7-2.5c-12.3-1.7-24.7-3.2-37.1-5.5c3.7,0,7.3,0,11,0c15.3,0,30.6,0.7,45.9-0.4c18.4-1.3,36.7-3.9,55-6.3
	c9.3-1.2,18.6-2.8,27.8-4.8c8.2-1.8,16.2-4.5,24.3-6.6c8.5-2.2,17-4.3,25.5-6.1c15.7-3.2,31.2-6.6,45.7-15.2
	C327.9,101.6,326,104,322.1,105.2z M59,122.7L59,122.7l-7.7-5l-1.2-1.6c-2.3-5.1-0.8-6.6,6.6-8c32.1-6,60.6-21.7,90.7-33
	c11.4-4.3,22.1-10.8,29.8-21c0.5-0.6,1-1.3,1.4-2c0-0.1,0-0.2,0-0.4c0,0.1,0.1,0.2,0.2,0.2c0.4-0.2,0.8-0.5,1.3-0.7
	c2.2-1.2,4.6-2.3,6.4-4c4.3-4.1,8.1-8.7,11.5-12.5c11.9,2.6,23,16.2,21.6,26.1c-0.5,3.3-3.2,6.6-5.7,9.2c-4.2,4.2-9.2,7.6-13.4,11.8
	c-10.3,10.4-9.5,17.3,3,24.4c9,5.1,18.4,9.3,28.7,14.5c-3.2,0.6-5.7,1.3-8.2,1.6c-22.6,3.1-45.2,6.7-67.9,8.9
	c-16.5,1.6-33.1,1.5-49.7,2C89.7,133.7,73.9,130.2,59,122.7z M83.8,134.3c-0.5,0.2-0.9,0.7-1.4,0.7c-0.6,0-1.1-0.3-1.7-0.5
	c0-0.2,0.1-0.4,0.1-0.6C81.8,134,82.8,134.1,83.8,134.3z M44.6,112.6l0.3-0.2L44.6,112.6C44.7,112.7,44.7,112.7,44.6,112.6
	c1.3,2.7,2.2,5.7,4.9,6.9l0,0l4,3.2l5.7,3.2c0,0,5.6,2.2,7,3c2.6,1.4,5.5,2.2,8.3,3.2c-0.2,0.6-0.4,1.2-0.6,1.7
	c-4.9-1.5-9.9-3.1-14.8-4.6l-15.5-9.8C42,116.9,41.4,114.5,44.6,112.6C44.7,112.7,44.6,112.6,44.6,112.6z M60.7,99.9h5.2
	c0,0.3,0.1,0.5,0.1,0.8c-1.8,0.1-3.6,0.3-5.3,0.4C60.7,100.7,60.7,100.3,60.7,99.9z M246.4,36.2c-6.6,1.6-13.2,3.2-19.7,4.8
	c-1.1,0.3-2.3,0-5.7,0c14.4-7.7,26.7-14.4,41.2-17.1c-3.3,3.1-6.6,6.2-9.9,9.3L246.4,36.2z M250.2,37.2L250.2,37.2
	c0,0.1,0,0.1-0.1,0.1L250.2,37.2L250.2,37.2z M221.9,73c0.2,0.1,0.4,0.2,0.7,0.3l-3.7,2.8l-12.7,9.5l0,0c-1.4,0.6-2.8,1.3-3.9,2.2
	c-3.3,2.7-3.2,6.1-0.3,9c2.2,2.1,4.9,3.9,7.7,5.2c12,5.3,24.2,10.3,36.3,16.5c-2.8,0-6,0.8-8.4-0.1c-10.2-4.1-20.1-8.7-30.1-13.1
	c-1.1-0.5-2.2-1.3-3.2-2c-9.8-7.1-10.1-10.5-1.5-19.2c4-4,8.5-7.4,12.8-11.1c8.7-7.4,10-12.9,4.9-23.1c-3.6-7.3-8.7-13.5-16.5-18.1
	C219.3,31.6,229.3,56.3,221.9,73z M324.7,90.7c-0.2,2.1-3.2,4.6-5.5,5.8c-5.5,2.7-11.4,4.7-19.3,7.8c6.3-15.3,13.6-27,24.3-37.8
	C326,75,325.6,82.9,324.7,90.7z M318.2,37.3c1.6,5.7,3.6,11.5,4.7,17.4c0.4,2.1-0.8,5-2.2,6.8c-9.5,12.1-18.3,24.6-24.7,38.7
	c-1.8,4-4.9,6.1-9.3,7c-11,2.2-22,5-33,7.5c-1.7,0.4-3.9,0.6-5.4-0.1c-12.8-5.1-25.6-10.3-38.3-15.7c-0.6-0.3-1.1-0.8-1.6-1.4
	l-4.1-3.5l22.8-17.3l5.1,1.8c8.5,0.1,16.6,0.6,24.6-0.2c8.5-0.9,16.9-3.5,25.4-5.3l-0.4-0.5l0.5,0.4c0,0-0.1,0-0.1,0l0,0
	c2.5-1.9,13.2-8.2,15.1-9.4v-0.3c-0.1-0.3-0.1-1.4,0-1.6c0,0.5,0,1,0,1.6c0,0.1,0.1,0.1,0.1,0.2c0.4-0.4,2.1-2.4,7.5-7.4V56h0.1
	c0,0,0,0,0,0c0.6-0.6,1.2-1.2,1.9-1.9c0,0,0,0,0-0.1C310.4,48.8,314,43.5,318.2,37.3z M259.9,71.9c13.5-7,25.7-16.6,41.1-19.6
	c0,0,0.1-0.1,0.1-0.1l0.5-0.4l-0.4,0.5c-0.1,0-0.1,0-0.2,0C290.7,65.9,276.5,71.4,259.9,71.9z M292.1,65.1l-0.4,0.4
	c0,0-0.1,0-0.1,0.1v-0.2L292.1,65.1z M296.7,35.2c1.2-0.3,2.4-0.7,3.6-0.9c4-0.7,7.7-0.2,9.3,4.1c1.1,3-2,8.8-5.8,9.5
	c-18.4,3.8-33.3,15.1-50.1,22.6c-8.5,3.8-17.4,3.8-26.2,0.6c-0.2-0.4-0.4-0.9-0.5-1.3c0-0.1,1.7-10.9,2.3-16.9c8.2-2,17-4,25.7-6.3
	C269,42.9,282.8,39,296.7,35.2z M278.2,9.6c3.7,4.3,5,10.4,5.3,16.3c0.2,4.9-3,9.3-8,10.4c-13.8,3.1-27.6,5.5-41.5,8.2
	c-0.2,0.1-0.5,0.2-0.7,0.2c-0.1,0-0.3,0-0.4,0c-1.5,0.5-3,1-4.5,1.5c-0.1-0.4-0.1-0.8-0.2-1.2c1.6-0.1,3.1-0.2,4.7-0.3
	c0.1,0,0.2-0.1,0.3-0.1c0.3,0,0.5-0.1,0.8-0.2c5.4-1.8,10.8-3.6,16.1-5.5v-0.2c0,0,0,0,0,0c0,0,0,0,0,0c1.2-0.3,2.4-0.9,3.6-1.7
	c0.1,0,0.1-0.1,0.2-0.1c1-0.6,2.1-1.4,3.1-2.2c0.7-0.5,1.2-0.9,1.5-1.2c0.2-0.1,0.3-0.3,0.5-0.4c0.5-0.4,0.6-0.5,0.6-0.5
	c0.1-0.1,0.1-0.1,0.1-0.1c0,0,0,0,0,0c0.5-0.4,1-0.8,1.6-1.2v-0.2c0,0.1,0.1,0.1,0.1,0.2c0.6-0.6,1.2-1.2,1.9-1.9c0,0,0.1,0,0.1-0.1
	c1.2-1.2,2.5-2.5,3.7-3.7c0,0-0.1,0-0.1,0.1v-0.3c0,0.1,0,0.1,0.1,0.2c0.6-0.6,1.2-1.2,1.8-1.8c0,0,0,0,0-0.1
	C272,19.3,275,14.6,278.2,9.6z M191.7,37.1C191.7,37.1,191.8,37.1,191.7,37.1c0.4-14.1,0.5-13.8,14-16.9
	c15.2-3.5,30.3-7.6,45.5-11.4c3.6-0.9,7.4-1.9,11-1.7c1.6,0.1,3.2,0.8,4.8,1.6c1.7,0.9,2.5,2.9,1.9,4.8c-0.9,2.3-1.7,4.6-3.3,5.2
	C250.8,25,235.6,30.4,219,36.6c-0.6-0.8-1.6-2.8-3.1-4.3c-7.3-6.9-12.8-6.6-20,1C194.5,34.6,193.1,35.8,191.7,37.1L191.7,37.1
	l-0.5,0.4L191.7,37.1z M185.3,18.9c4.7,6.8,4.4,13.9,1.3,21.1c-0.1,0.3-0.3,0.7-0.4,1v0.3c0,0,0,0,0,0l-1.8,1.5l-0.1,0.1l-0.6,0.5
	l-6.3,5.3l-0.4,0.3l0,0c-0.4,0.3-0.8,0.7-1.2,1c-5.8,4.8-13.2,11-13.5,12.5c-0.7-0.3-1.4-0.5-2.1-0.8c1.1-1.9,12.6-14.7,17.6-18.9
	c9.9-8.4,11.2-15.2,3.5-25.8c-3.4-4.7-7.8-8.7-12.3-13.6C178.7,4.7,181.1,12.8,185.3,18.9z M22.9,75.1c30.5-5.7,58.2-19.5,87-30
	c18-6.5,32.3-19.1,46.2-31.8c8.5-7.8,11.4-8,18.9,0.9c2.2,2.6,4.1,5.6,5.5,8.7c3.4,7.5,2.1,11.7-4.6,17.2c-3.7,3-7.4,5.9-10.8,9.1
	c-4.1,3.8-8,7.7-8.2,14.2c-0.1,2.2-3.4,5.1-5.9,6.2c-11.2,5-22.6,9.4-33.9,14.1c-3.8,1.6-7.7,2.9-11.2,4.8
	c-24.9,13.5-49.8,11.3-74.7,1.9c-1.2-0.5-2.4-0.9-3.6-1.4l-6.2-3.3l-6.6-7.3C18.1,77,20.4,75.6,22.9,75.1z M17.3,85.3l11.8,6.6h0
	c1.1,0.7,2.2,1.3,3.4,1.9c3.2,1.6,6.7,2.6,10,3.8c0.1,0,0.2,0,0.3,0c0.1,0,0.2,0.1,0.3,0.1c1.6,0.1,3.2,0.2,4.8,0.3
	c-0.1,0.4-0.2,0.9-0.2,1.3c-1.5-0.5-3-1.1-4.6-1.6c-0.1,0-0.3,0-0.4,0c-0.1,0-0.2-0.1-0.2-0.1c-9,0.1-17-3.1-24.8-7
	c-3.9-2-7.3-4.6-7.8-10.2C11.9,81.4,17.3,85.3,17.3,85.3z M32.5,121.7c-9.5-1.2-17.9-5.1-25.2-10.9C2.5,107,2.6,92.4,6.8,85.3
	c13.7,14.7,32.8,14.5,52.3,19.2C46,105.2,38.6,112,32.5,121.7z M119.4,166.7c-12.2-0.8-24.3-2.2-36.4-3.4
	c-13.9-1.4-26.9-5.4-39-12.5c-4.4-2.6-7.2-5.9-6.8-11.3c0.4-6.6-4-13.5,1.3-19.8c1.7,1.1,3.4,2.1,5.1,3.2l0.6,0.4l4.5,2.8l0,0
	c2.6,1.9,5,4.6,7.9,5.3c0.2,0.1,0.5,0.1,0.8,0.2l0,0c11.2,2.9,22.5,5.5,33.9,7.5c11.1,1.9,22.3,3,33.5,4.1
	c13.7,1.4,16.8,12,21.6,23.6C136.6,166.8,128,167.2,119.4,166.7z M314.1,132.3c-13.6,3.7-27.6,5.7-41.3,9.1
	c-23.4,5.9-46.7,12.3-70,18.5c-14.6,3.9-29.1,7.4-44.4,7.3c-6.3,0-10-2-12-7.9c-1.3-3.8-3.3-7.3-5.1-11.2
	c31.4-5.5,62.4-10,92.9-16.6c30.6-6.7,60.7-15.5,91-23.4C329.9,121.2,326.9,128.9,314.1,132.3z"/>
</svg>
